<svg xmlns="http://www.w3.org/2000/svg" width="44.616" height="35.904" viewBox="0 0 44.616 35.904">
  <path id="quote-left" d="M45.3,27.416c0-5.28-3.564-8.844-8.844-8.844a6.028,6.028,0,0,0-2.64.66,13.074,13.074,0,0,1,10.3-11.748V.224C36.325,1.016,25.1,7.616,25.1,24.116c0,7.26,4.488,12.012,10.56,12.012C41.209,36.128,45.3,32.168,45.3,27.416Zm-24.42,0a8.454,8.454,0,0,0-8.844-8.844,6.837,6.837,0,0,0-2.772.66A13.056,13.056,0,0,1,19.693,7.484V.224C11.773,1.016.685,7.616.685,24.116c0,7.26,4.356,12.012,10.56,12.012C16.789,36.128,20.881,32.168,20.881,27.416Z" transform="translate(-0.685 -0.224)" fill="#e1dfec"/>
</svg>
