<svg xmlns="http://www.w3.org/2000/svg" width="304.881" height="199.627" viewBox="0 0 304.881 199.627">
  <g id="yes" transform="translate(-29.848 -25.727)">
    <g id="Group_1674" data-name="Group 1674" transform="translate(119.516 51.441)">
      <path id="Path_2046" data-name="Path 2046" d="M179.59,183.341a72.7,72.7,0,1,0-28.606,3.441l26.594,27.862-13.489-45.9Z" transform="translate(-83.122 -40.731)" fill="#4068fc"/>
    </g>
    <g id="Group_1675" data-name="Group 1675" transform="translate(136.346 92.069)">
      <path id="Path_2048" data-name="Path 2048" d="M113.56,95.309a64.853,64.853,0,0,1,2.672-9.4l4.223-10.874,12.874-2.689v.719l-13.718,33.273v19.191l-12.172,2.543V108.88L93.577,81.368V80.65l13.016-2.721,4.153,9.126a65.57,65.57,0,0,1,2.672,8.284Z" transform="translate(-93.577 -60.783)" fill="#fff"/>
      <path id="Path_2049" data-name="Path 2049" d="M130.565,90.426l13.088-2.732V99.2l-13.088,2.731v8.193L145.483,107v12.01l-27.018,5.643V74.336L144.92,68.81V80.239l-14.355,3Z" transform="translate(-76.875 -63.156)" fill="#fff"/>
      <path id="Path_2050" data-name="Path 2050" d="M148.623,102.13c-.072,3.1,2.181,4.793,5.556,4.087,3.239-.677,5.419-2.786,5.419-5.66,0-4.1-4.362-3.474-6.826-3.175-7.669,1.026-15.337-1.613-15.337-12.1,0-9.849,6.614-17.341,16.465-19.4,9.988-2.086,16.464,3.173,16.181,13.08l-11.4,2.381c.212-3.063-1.689-4.823-4.575-4.22A5.539,5.539,0,0,0,149.4,82.7c0,2.228,1.619,3.471,5.418,3.18,8.937-.931,16.816.084,16.816,12.3,0,9.632-6.9,17.182-17.309,19.356-10.625,2.221-17.518-2.955-17.239-13Z" transform="translate(-64.386 -65.426)" fill="#fff"/>
    </g>
    <g id="Group_1676" data-name="Group 1676" transform="translate(264.086 186.499)">
      <path id="Path_2051" data-name="Path 2051" d="M181.971,145.838a.956.956,0,0,1-.677-.281l-11-10.991a.956.956,0,0,1,0-1.354l11-11a.959.959,0,0,1,1.354,0l11,10.993a.958.958,0,0,1,0,1.352l-11,11A.953.953,0,0,1,181.971,145.838Zm-9.646-11.948,9.646,9.641,9.647-9.647-9.647-9.642Z" transform="translate(-170.018 -121.934)" fill="#4068fc"/>
    </g>
    <g id="Group_1677" data-name="Group 1677" transform="translate(295.529 93.555)">
      <path id="Path_2052" data-name="Path 2052" d="M190.92,70.738a2.213,2.213,0,1,1,2.335-2.082A2.213,2.213,0,0,1,190.92,70.738Z" transform="translate(-188.834 -66.316)" fill="#f0f3eb"/>
    </g>
    <g id="Group_1678" data-name="Group 1678" transform="translate(139.691 212.825)">
      <path id="Path_2053" data-name="Path 2053" d="M97.665,142.108A2.212,2.212,0,1,1,100,140.026a2.212,2.212,0,0,1-2.335,2.082Z" transform="translate(-95.579 -137.688)" fill="#f0f3eb"/>
    </g>
    <g id="Group_1679" data-name="Group 1679" transform="translate(242.799 36.977)">
      <path id="Path_2054" data-name="Path 2054" d="M159.366,36.879A2.212,2.212,0,1,1,161.7,34.8a2.212,2.212,0,0,1-2.334,2.079Z" transform="translate(-157.28 -32.459)" fill="#f0f3eb"/>
    </g>
    <g id="Group_1680" data-name="Group 1680" transform="translate(303.003 162.938)">
      <path id="Path_2055" data-name="Path 2055" d="M219.422,122.654a.962.962,0,0,1-.438-.107L193.826,109.64a.955.955,0,0,1,.872-1.7l25.16,12.906a.956.956,0,0,1-.436,1.806Z" transform="translate(-193.306 -107.835)" fill="#e3e3e3"/>
    </g>
    <g id="Group_1681" data-name="Group 1681" transform="translate(300.014 66.077)">
      <path id="Path_2056" data-name="Path 2056" d="M192.471,59.484a.955.955,0,0,1-.239-1.88L221.9,49.9a.956.956,0,0,1,.48,1.85l-29.669,7.7A1,1,0,0,1,192.471,59.484Z" transform="translate(-191.517 -49.873)" fill="#e3e3e3"/>
    </g>
    <g id="Group_1682" data-name="Group 1682" transform="translate(29.847 118.766)">
      <path id="Path_2057" data-name="Path 2057" d="M49.892,90.6a.962.962,0,0,1-.7-.309l-5.53-6.031L37.626,89.8a.957.957,0,0,1-1.35-.058L30.1,83a.956.956,0,0,1,1.409-1.293l5.53,6.031,6.031-5.531a.957.957,0,0,1,1.352.058L49.95,88.3l6.029-5.53a.956.956,0,1,1,1.293,1.409l-6.735,6.175a.964.964,0,0,1-.645.246Z" transform="translate(-29.847 -81.402)" fill="#4068fc"/>
    </g>
    <g id="Group_1685" data-name="Group 1685" transform="translate(100.793 25.726)">
      <g id="Group_1683" data-name="Group 1683" transform="translate(0 11.295)">
        <path id="Path_2058" data-name="Path 2058" d="M95.846,34.4H73.256a.955.955,0,1,1,0-1.91h22.59a.955.955,0,1,1,0,1.91Z" transform="translate(-72.302 -32.485)" fill="#4068fc"/>
      </g>
      <g id="Group_1684" data-name="Group 1684" transform="translate(11.293)">
        <path id="Path_2059" data-name="Path 2059" d="M80.018,50.228a.954.954,0,0,1-.956-.954V26.682a.955.955,0,1,1,1.91,0V49.274a.954.954,0,0,1-.954.954Z" transform="translate(-79.06 -25.726)" fill="#4068fc"/>
      </g>
    </g>
    <g id="Group_1686" data-name="Group 1686" transform="translate(70.076 169.21)">
      <path id="Path_2060" data-name="Path 2060" d="M54.877,123.755a.955.955,0,0,1-.361-1.84l25.19-10.256a.955.955,0,1,1,.722,1.768L55.236,123.683a.938.938,0,0,1-.359.072Z" transform="translate(-53.921 -111.588)" fill="#e3e3e3"/>
    </g>
    <g id="Group_1693" data-name="Group 1693" transform="translate(299.749 133.532)">
      <g id="Group_1687" data-name="Group 1687" transform="translate(0.954 0.956)">
        <path id="Path_2061" data-name="Path 2061" d="M194.109,99.778l26.5,6.564c1.706.423,3.584-1.228,4.193-3.685s-.281-4.794-1.987-5.217l-26.5-6.564c-1.708-.423-3.584,1.228-4.194,3.685S192.4,99.356,194.109,99.778Z" transform="translate(-191.93 -90.81)" fill="#fff"/>
      </g>
      <g id="Group_1692" data-name="Group 1692">
        <g id="Group_1688" data-name="Group 1688" transform="translate(4.383 0.066)">
          <path id="Path_2062" data-name="Path 2062" d="M221.433,98.754a.926.926,0,0,1-.231-.028l-26.5-6.564a.957.957,0,1,1,.461-1.857l26.5,6.564a.956.956,0,0,1-.231,1.885Z" transform="translate(-193.981 -90.278)" fill="#4068fc"/>
        </g>
        <g id="Group_1689" data-name="Group 1689" transform="translate(2.179 8.969)">
          <path id="Path_2063" data-name="Path 2063" d="M220.115,104.081a.927.927,0,0,1-.231-.028l-26.5-6.564a.957.957,0,1,1,.463-1.857l26.5,6.564a.957.957,0,0,1-.231,1.885Z" transform="translate(-192.662 -95.605)" fill="#4068fc"/>
        </g>
        <g id="Group_1690" data-name="Group 1690">
          <path id="Path_2064" data-name="Path 2064" d="M195.049,101.185a3.3,3.3,0,0,1-.784-.1,3.749,3.749,0,0,1-2.527-2.433,6.688,6.688,0,0,1-.16-3.94c.745-3.016,3.095-4.933,5.349-4.385s3.432,3.362,2.687,6.375C198.954,99.37,197.041,101.185,195.049,101.185Zm1.1-9.036c-1.093,0-2.283,1.288-2.712,3.025a4.843,4.843,0,0,0,.089,2.8,1.934,1.934,0,0,0,1.2,1.255c1.2.3,2.562-1.08,3.035-2.986s-.115-3.767-1.288-4.061a1.3,1.3,0,0,0-.326-.032Z" transform="translate(-191.359 -90.238)" fill="#4068fc"/>
        </g>
        <g id="Group_1691" data-name="Group 1691" transform="translate(28.674 6.63)">
          <path id="Path_2065" data-name="Path 2065" d="M210.029,105.088a3.311,3.311,0,0,1-.784-.1.956.956,0,0,1,.458-1.857c1.2.309,2.56-1.08,3.035-2.986a4.433,4.433,0,0,0-.312-3.264,1.652,1.652,0,0,0-.976-.8.956.956,0,0,1,.458-1.857,3.5,3.5,0,0,1,2.156,1.666,6.365,6.365,0,0,1,.53,4.709C213.934,103.274,212.021,105.088,210.029,105.088Z" transform="translate(-208.517 -94.206)" fill="#4068fc"/>
        </g>
      </g>
    </g>
    <g id="Group_1699" data-name="Group 1699" transform="translate(292.724 41.516)">
      <g id="Group_1694" data-name="Group 1694" transform="translate(0.957 0.957)">
        <path id="Path_2066" data-name="Path 2066" d="M204.09,38.27c-2.667-2.533-6.068-3.284-7.6-1.676a2.488,2.488,0,0,0-.473.727l-.012-.01-8.282,18.178,17.732-9.2-.012-.012a2.482,2.482,0,0,0,.7-.508C207.679,44.161,206.755,40.8,204.09,38.27Z" transform="translate(-187.728 -35.748)" fill="#fff"/>
      </g>
      <g id="Group_1698" data-name="Group 1698">
        <g id="Group_1695" data-name="Group 1695" transform="translate(8.028)">
          <path id="Path_2067" data-name="Path 2067" d="M201.093,47.957a6.24,6.24,0,0,1-1.357-.155,10.965,10.965,0,0,1-7.545-7.167,3.981,3.981,0,0,1,5.038-5.306,10.208,10.208,0,0,1,4.677,2.632h0c3.1,2.943,4.017,6.83,2.1,8.85a3.882,3.882,0,0,1-2.913,1.146Zm-5.219-10.87a2.048,2.048,0,0,0-1.527.55,2.684,2.684,0,0,0-.312,2.492,9.07,9.07,0,0,0,6.111,5.807,2.669,2.669,0,0,0,2.473-.439c1-1.049.408-3.833-2.027-6.15h0A8.314,8.314,0,0,0,196.82,37.2a4.523,4.523,0,0,0-.946-.113Z" transform="translate(-191.959 -35.175)" fill="#4068fc"/>
        </g>
        <g id="Group_1696" data-name="Group 1696" transform="translate(0 10.543)">
          <path id="Path_2068" data-name="Path 2068" d="M188.111,52.6a.955.955,0,0,1-.439-1.8l17.734-9.2a.957.957,0,1,1,.881,1.7l-17.734,9.2a.949.949,0,0,1-.442.1Z" transform="translate(-187.155 -41.484)" fill="#4068fc"/>
        </g>
        <g id="Group_1697" data-name="Group 1697" transform="translate(0.001 1.565)">
          <path id="Path_2069" data-name="Path 2069" d="M188.111,56.2a.954.954,0,0,1-.869-1.352l8.284-18.178a.956.956,0,1,1,1.74.792l-8.284,18.18a.957.957,0,0,1-.871.558Z" transform="translate(-187.155 -36.111)" fill="#4068fc"/>
        </g>
      </g>
    </g>
    <g id="Group_1705" data-name="Group 1705" transform="translate(87.673 190.382)">
      <g id="Group_1700" data-name="Group 1700" transform="translate(0.955 0.955)">
        <path id="Path_2070" data-name="Path 2070" d="M72.777,142.8l-7.755-6.889,4.336-9.428,8.56-1.657,7.755,6.889-4.336,9.428Z" transform="translate(-65.022 -124.829)" fill="#fff"/>
      </g>
      <g id="Group_1704" data-name="Group 1704">
        <g id="Group_1701" data-name="Group 1701" transform="translate(0 1.656)">
          <path id="Path_2071" data-name="Path 2071" d="M73.161,143.478a.962.962,0,0,1-.635-.242l-7.754-6.888a.953.953,0,0,1-.234-1.113l4.337-9.427a.953.953,0,0,1,1.5-.316l7.754,6.888a.953.953,0,0,1,.234,1.113l-4.337,9.427a.952.952,0,0,1-.672.536.864.864,0,0,1-.193.022Zm-6.591-8.09,6.262,5.563,3.5-7.612-6.262-5.563Z" transform="translate(-64.451 -125.248)" fill="#4068fc"/>
        </g>
        <g id="Group_1702" data-name="Group 1702" transform="translate(4.336)">
          <path id="Path_2072" data-name="Path 2072" d="M71.418,144.143a.956.956,0,0,1-.18-1.9l8.078-1.562,3.837-8.339-6.873-6.106-8.1,1.568a.955.955,0,1,1-.364-1.875l8.559-1.658a.956.956,0,0,1,.817.224l7.756,6.888a.955.955,0,0,1,.234,1.113l-4.337,9.428a.954.954,0,0,1-.687.54l-8.558,1.66A1,1,0,0,1,71.418,144.143Z" transform="translate(-67.045 -124.258)" fill="#4068fc"/>
        </g>
        <g id="Group_1703" data-name="Group 1703" transform="translate(12.092 6.889)">
          <path id="Path_2073" data-name="Path 2073" d="M72.64,131.95a.956.956,0,0,1-.18-1.9l8.559-1.658a.955.955,0,0,1,.364,1.875l-8.559,1.659a.993.993,0,0,1-.184.024Z" transform="translate(-71.686 -128.38)" fill="#4068fc"/>
        </g>
      </g>
    </g>
    <g id="Group_1712" data-name="Group 1712" transform="translate(61.676 86.163)">
      <g id="Group_1706" data-name="Group 1706" transform="translate(0.96 0.959)">
        <path id="Path_2074" data-name="Path 2074" d="M62.665,64.216c-4.171-2.378-8.683-2.326-10.077.119l-2.707,4.748c-1.394,2.443.859,6.354,5.03,8.733S63.6,80.141,64.987,77.7L67.7,72.949C69.09,70.5,66.837,66.6,62.665,64.216Z" transform="translate(-49.468 -62.466)" fill="#fff"/>
      </g>
      <g id="Group_1711" data-name="Group 1711">
        <g id="Group_1707" data-name="Group 1707" transform="translate(2.707)">
          <path id="Path_2075" data-name="Path 2075" d="M62.9,76.157a14.377,14.377,0,0,1-11.412-6.571c-1.128-1.954-1.28-3.852-.431-5.341s2.56-2.323,4.816-2.35a13.181,13.181,0,0,1,6.564,1.875h0a13.33,13.33,0,0,1,4.958,4.7c1.126,1.955,1.278,3.852.429,5.341s-2.558,2.323-4.814,2.35ZM55.982,63.805h-.089c-1.549.017-2.677.51-3.177,1.385s-.349,2.1.426,3.439A11.377,11.377,0,0,0,57.39,72.62a11.258,11.258,0,0,0,5.6,1.624c1.549-.018,2.677-.511,3.175-1.385a3.5,3.5,0,0,0-.424-3.441,11.4,11.4,0,0,0-4.248-3.989h0A11.471,11.471,0,0,0,55.982,63.8Z" transform="translate(-50.514 -61.892)" fill="#e3e3e3"/>
        </g>
        <g id="Group_1708" data-name="Group 1708" transform="translate(0 6.619)">
          <path id="Path_2076" data-name="Path 2076" d="M61.279,78.248a14.388,14.388,0,0,1-11.412-6.571c-1.128-1.955-1.28-3.854-.431-5.341a.956.956,0,0,1,1.661.948c-.5.874-.349,2.1.426,3.439a11.37,11.37,0,0,0,4.248,3.987,11.135,11.135,0,0,0,5.6,1.626c1.549-.018,2.677-.51,3.175-1.385a.955.955,0,1,1,1.661.944c-.849,1.491-2.558,2.326-4.814,2.353Z" transform="translate(-48.894 -65.853)" fill="#e3e3e3"/>
        </g>
        <g id="Group_1709" data-name="Group 1709" transform="translate(15.524 10.488)">
          <path id="Path_2077" data-name="Path 2077" d="M59.139,74.824a.948.948,0,0,1-.473-.124.959.959,0,0,1-.358-1.305l2.707-4.746a.956.956,0,1,1,1.661.946l-2.707,4.748A.952.952,0,0,1,59.139,74.824Z" transform="translate(-58.183 -68.168)" fill="#e3e3e3"/>
        </g>
        <g id="Group_1710" data-name="Group 1710" transform="translate(0.417 1.872)">
          <path id="Path_2078" data-name="Path 2078" d="M50.1,69.671a.956.956,0,0,1-.829-1.429l2.707-4.749a.956.956,0,1,1,1.661.948l-2.71,4.749a.954.954,0,0,1-.829.481Z" transform="translate(-49.143 -63.012)" fill="#e3e3e3"/>
        </g>
      </g>
    </g>
    <g id="Group_1713" data-name="Group 1713" transform="translate(108.119 43.654)">
      <path id="Path_2079" data-name="Path 2079" d="M150.527,184.137a73.842,73.842,0,1,1,73.842-73.842A73.842,73.842,0,0,1,150.527,184.137Zm0-145.773a71.93,71.93,0,1,0,71.931,71.931,71.93,71.93,0,0,0-71.931-71.931Z" transform="translate(-76.686 -36.454)" fill="#f0f3eb"/>
    </g>
  </g>
</svg>
