<?xml version="1.0" standalone="no"?>
<!DOCTYPE svg PUBLIC "-//W3C//DTD SVG 20010904//EN"
 "http://www.w3.org/TR/2001/REC-SVG-20010904/DTD/svg10.dtd">
<svg version="1.0" xmlns="http://www.w3.org/2000/svg"
 width="199.000000pt" height="253.000000pt" viewBox="0 0 199.000000 253.000000"
 preserveAspectRatio="xMidYMid meet">

<g transform="translate(0.000000,253.000000) scale(0.100000,-0.100000)"
fill="#000000" stroke="none">
<path d="M487 2485 c-15 -141 -189 -257 -404 -272 l-83 -6 0 -596 c0 -689 -4
-657 100 -866 69 -139 118 -206 232 -323 146 -148 342 -279 564 -375 83 -36
105 -42 125 -33 521 220 824 514 948 920 20 66 21 87 21 672 l0 604 -40 0
c-114 0 -282 58 -354 121 -45 39 -86 119 -86 167 l0 32 -509 0 -508 0 -6 -45z
m973 -22 c0 -38 49 -120 99 -166 28 -27 80 -61 114 -77 63 -30 184 -60 238
-60 l29 0 0 -569 0 -569 -29 -90 c-97 -297 -285 -521 -591 -707 -111 -68 -296
-157 -326 -157 -33 -1 -279 123 -379 190 -298 199 -459 416 -554 747 -9 29
-11 198 -9 595 l3 554 77 12 c144 22 234 60 311 132 48 45 97 128 97 165 0 16
29 17 460 17 431 0 460 -1 460 -17z"/>
<path d="M555 2435 c-27 -102 -84 -176 -174 -223 -68 -37 -194 -72 -256 -72
l-43 0 -1 -549 -1 -549 31 -93 c64 -193 156 -336 316 -489 118 -113 247 -199
429 -287 l136 -65 104 47 c209 96 350 189 490 324 137 132 232 283 295 469
l29 86 0 553 0 553 -37 0 c-105 1 -258 59 -331 125 -41 37 -92 124 -92 157 0
17 -26 18 -446 20 -292 2 -447 0 -449 -7z m620 -146 c84 -21 265 -101 265
-117 0 -7 -61 -93 -106 -151 -2 -2 -43 13 -91 32 -114 46 -160 56 -259 57 -91
0 -165 -18 -241 -61 -29 -16 -58 -26 -65 -22 -7 3 -43 38 -80 77 l-68 72 64
37 c74 42 192 84 274 97 78 12 211 3 307 -21z m335 -205 l55 -56 -62 6 -62 6
-3 -56 -3 -55 -42 43 -42 43 47 62 c26 34 49 62 52 62 3 0 30 -25 60 -55z
m-912 -7 l52 -53 -49 -48 -50 -49 -3 54 -3 53 -55 -3 -55 -2 50 50 c27 28 52
51 55 51 3 0 29 -24 58 -53z m-162 -190 c-6 -26 -84 -107 -102 -107 -17 0 -24
48 -8 54 8 3 14 12 14 19 0 8 19 34 41 58 40 43 42 43 51 22 6 -12 8 -33 4
-46z m643 52 c206 -35 379 -199 422 -399 18 -86 7 -223 -26 -303 -31 -76 -36
-81 -71 -73 -21 6 -24 9 -14 21 7 8 8 15 3 15 -5 0 -15 -11 -21 -25 -11 -24
-16 -25 -94 -25 -49 0 -78 -4 -70 -9 11 -7 10 -10 -3 -15 -9 -3 -24 -6 -33 -5
-14 0 -13 2 3 9 12 6 -61 9 -190 9 l-210 -1 -80 41 c-44 22 -89 43 -100 47
-18 6 -16 8 10 15 l30 7 -34 -1 c-50 -3 -49 -23 1 -35 24 -6 51 -17 60 -24 16
-12 11 -15 -38 -34 l-55 -22 -26 45 c-56 96 -79 258 -52 373 42 182 208 345
393 385 78 17 114 18 195 4z m665 -58 c3 -5 -5 -8 -18 -7 -13 0 -22 4 -19 9 6
10 31 9 37 -2z m-34 -17 c29 -6 64 -44 40 -44 -5 0 -10 -7 -10 -15 0 -10 -10
-15 -33 -15 -21 0 -36 -7 -45 -20 -7 -11 -19 -20 -27 -20 -8 0 -24 9 -35 20
-16 16 -17 20 -5 20 11 0 15 11 15 38 0 47 7 55 42 48 16 -3 42 -9 58 -12z
m-1270 -65 c0 -17 -68 -78 -94 -85 -47 -11 -32 28 26 69 49 34 68 38 68 16z
m-152 -61 c4 -95 -25 -142 -49 -80 -14 33 -13 107 2 133 6 11 18 19 27 17 14
-3 18 -17 20 -70z m1481 -23 c13 -14 29 -25 37 -25 17 0 18 -14 4 -41 -12 -21
-40 -25 -57 -8 -7 7 -22 7 -51 -1 -23 -6 -53 -8 -67 -4 -20 5 -25 12 -24 38 0
17 3 25 6 19 6 -17 63 12 63 32 0 20 31 35 50 25 8 -5 26 -21 39 -35z m-1386
-29 c3 -8 -5 -29 -19 -47 -13 -18 -24 -42 -24 -53 0 -17 -2 -18 -10 -6 -7 12
-12 12 -29 -4 -21 -19 -21 -19 -21 1 0 38 21 78 53 101 37 26 43 27 50 8z
m-155 -51 c16 -25 22 -50 22 -90 0 -30 -4 -55 -8 -55 -21 0 -72 86 -72 122 0
22 17 58 28 58 4 0 17 -16 30 -35z m1549 -68 c4 -8 20 -22 36 -32 30 -19 33
-33 15 -58 -11 -14 -19 -15 -48 -7 -22 6 -38 6 -44 0 -14 -14 -49 -13 -64 2
-18 18 -14 49 7 55 10 2 24 16 30 29 12 27 54 33 68 11z m-1430 -56 c-4 -35
-14 -60 -33 -80 -35 -40 -44 -39 -44 4 0 37 12 65 44 103 30 35 39 27 33 -27z
m-167 29 c0 -5 -5 -10 -11 -10 -5 0 -7 5 -4 10 3 6 8 10 11 10 2 0 4 -4 4 -10z
m43 -69 c25 -36 49 -131 33 -131 -14 0 -51 23 -63 39 -7 9 -13 27 -13 42 0 14
-4 29 -10 35 -12 12 -1 54 14 54 6 0 23 -18 39 -39z m127 -90 c0 -39 -5 -56
-24 -75 -13 -15 -26 -26 -30 -26 -3 0 -6 19 -6 41 0 41 32 109 51 109 5 0 9
-22 9 -49z m1428 3 c2 -12 14 -32 28 -44 22 -22 23 -25 7 -42 -18 -20 -48 -24
-59 -7 -4 7 -21 9 -45 5 -36 -6 -40 -4 -52 21 -9 21 -9 27 2 31 7 2 28 17 45
33 36 33 70 34 74 3z m-1554 -64 c36 -13 95 -140 65 -140 -39 0 -91 58 -109
120 -10 33 -1 37 44 20z m166 -100 c0 -60 -20 -82 -50 -55 -25 23 -27 91 -3
117 15 17 17 17 35 2 13 -12 18 -31 18 -64z m1324 -6 c9 -8 16 -21 16 -28 0
-7 9 -21 19 -30 10 -10 21 -26 24 -36 7 -26 -39 -37 -62 -15 -11 9 -36 15 -65
15 -31 0 -48 5 -52 14 -8 20 13 56 32 56 8 0 24 9 36 20 26 24 32 25 52 4z
m-1254 -84 c0 -9 5 -21 12 -28 7 -7 8 -12 2 -12 -6 0 -10 -10 -10 -22 2 -39
-27 -26 -52 22 -23 47 -22 76 7 98 14 11 18 9 28 -15 7 -15 12 -35 13 -43z
m-126 5 c25 -20 53 -49 61 -65 15 -29 15 -30 -9 -30 -43 0 -91 30 -119 74 -15
24 -27 46 -27 50 0 18 53 2 94 -29z m438 -29 c50 -25 52 -25 183 8 81 21 99
20 158 -10 29 -14 62 -24 75 -21 14 3 21 0 19 -7 -8 -23 -61 -23 -107 1 -54
28 -106 29 -180 3 -71 -25 -107 -25 -149 1 -33 20 -69 22 -145 8 -34 -7 -29
20 6 30 55 15 90 12 140 -13z m633 15 c3 -5 0 -13 -7 -17 -17 -11 -169 -11
-158 0 20 20 154 34 165 17z m-881 -68 c14 -15 22 -31 18 -37 -4 -6 -7 -20 -7
-30 0 -26 -19 -31 -39 -11 -17 18 -23 105 -6 105 5 0 20 -12 34 -27z m1134
-11 c7 -9 10 -23 7 -30 -3 -8 -5 -34 -5 -58 0 -39 -2 -44 -23 -44 -28 0 -47
17 -47 44 0 15 -13 27 -40 39 -45 21 -48 29 -21 56 15 15 29 18 67 14 28 -3
54 -12 62 -21z m-890 -2 c41 -25 91 -25 162 0 73 26 103 25 165 -5 53 -25 96
-23 129 4 19 16 116 26 116 12 0 -6 -27 -29 -61 -51 l-61 -39 -51 20 c-137 55
-162 58 -229 23 -47 -24 -217 -10 -267 23 -52 34 42 46 97 13z m-294 -69 l41
-41 -53 0 c-45 0 -58 5 -87 32 -50 45 -47 62 11 55 38 -4 55 -13 88 -46z m129
27 c12 -13 22 -25 23 -28 0 -3 3 -12 6 -20 12 -30 17 -79 9 -84 -11 -7 -79 66
-82 89 -3 20 9 65 17 65 2 0 14 -10 27 -22z m877 -23 c-7 -8 -18 -15 -24 -15
-6 0 -3 7 7 14 9 7 17 19 18 27 0 11 2 11 6 1 3 -7 -1 -19 -7 -27z m-393 -7
c59 -24 71 -44 21 -33 -83 17 -121 17 -157 0 -33 -14 -44 -15 -82 -4 -41 11
-42 13 -19 20 14 4 43 7 66 8 22 1 44 5 50 10 8 8 34 17 59 20 5 0 33 -9 62
-21z m329 -7 c-7 -11 29 -22 80 -24 l41 -1 -9 -33 c-5 -18 -8 -44 -6 -59 3
-30 -20 -51 -46 -41 -10 4 -16 18 -16 35 0 25 -5 31 -32 37 -18 5 -38 8 -44 8
-15 -1 3 68 20 79 15 10 18 10 12 -1z m-700 -39 c11 -10 29 -30 38 -45 15 -22
16 -30 6 -42 -19 -22 -38 -18 -71 14 -39 39 -38 86 1 90 3 0 14 -7 26 -17z
m311 -8 c-3 -3 -12 -4 -19 -1 -8 3 -5 6 6 6 11 1 17 -2 13 -5z m-457 -27 c23
-12 42 -27 42 -32 -1 -6 -23 -13 -49 -17 -65 -10 -128 13 -131 48 -2 22 1 24
47 24 30 0 63 -8 91 -23z m740 -32 c7 -8 20 -15 30 -15 25 0 33 -29 15 -56 -8
-13 -15 -29 -15 -35 0 -19 -31 -49 -52 -49 -15 0 -18 8 -18 43 0 31 -6 49 -20
62 -11 10 -20 23 -20 30 0 33 57 47 80 20z m-592 -61 l20 -21 -50 -12 c-71
-16 -122 -14 -148 7 -41 33 -18 47 75 47 72 0 87 -3 103 -21z m-198 -185 c0
-18 -57 -69 -77 -69 -25 0 -80 57 -67 70 5 5 27 23 49 39 l40 31 28 -30 c15
-17 27 -35 27 -41z m1038 -2 c62 -44 38 -59 -27 -17 -50 32 -57 40 -45 53 8 7
14 4 72 -36z m-548 -63 c0 -48 -3 -65 -12 -62 -7 3 -14 21 -16 42 -2 28 -7 36
-18 32 -8 -3 -14 -1 -14 5 0 11 40 48 53 49 4 0 7 -30 7 -66z m469 17 c6 -10
7 -21 4 -25 -3 -3 8 -9 26 -12 46 -10 32 -30 -18 -26 -43 3 -52 -7 -26 -28 11
-9 13 -16 5 -24 -7 -7 -24 3 -56 34 l-45 45 31 28 c35 31 65 35 79 8z m-899
-2 c0 -6 -11 -24 -25 -41 -29 -35 -31 -46 -8 -55 11 -4 25 5 46 30 26 33 47
41 47 17 0 -17 -62 -80 -79 -80 -26 0 -61 29 -61 50 0 11 14 35 31 55 31 35
49 44 49 24z m780 -102 c26 -49 22 -72 -14 -88 -34 -16 -51 -7 -82 42 -20 33
-23 43 -13 50 10 6 21 -4 39 -31 14 -22 31 -40 38 -40 23 0 24 29 3 59 -24 34
-27 51 -7 51 7 0 24 -20 36 -43z m-653 2 c-5 -17 -1 -18 33 -13 46 8 63 -11
19 -21 -30 -7 -31 -9 -26 -51 2 -24 2 -44 -2 -44 -18 1 -30 19 -33 50 l-3 35
-23 -25 c-38 -41 -45 -11 -11 48 29 49 57 62 46 21z m503 -24 c0 -8 -7 -15
-15 -15 -18 0 -18 2 0 -51 12 -34 13 -44 3 -50 -16 -10 -22 -3 -36 48 -10 34
-16 40 -32 36 -13 -4 -20 0 -20 9 0 9 16 19 43 25 59 15 57 15 57 -2z m-365
-32 c-12 -62 -11 -68 10 -68 15 0 22 10 29 43 7 31 15 42 29 42 13 0 17 -5 14
-14 -3 -8 -11 -33 -17 -55 -13 -49 -46 -63 -85 -37 -29 19 -29 21 -14 82 7 27
17 44 26 44 12 0 14 -8 8 -37z m153 -11 c5 -33 42 -30 42 3 0 15 6 25 14 25
16 0 34 -100 21 -119 -11 -19 -25 -12 -25 12 0 30 -6 36 -31 30 -12 -3 -19
-14 -19 -29 0 -14 -6 -24 -14 -24 -10 0 -15 17 -18 58 -2 31 -2 61 0 65 7 15
27 1 30 -21z"/>
<path d="M896 2275 c-3 -9 -6 -33 -6 -53 l0 -37 -23 40 c-25 45 -67 61 -67 26
0 -44 24 -121 38 -121 10 0 12 7 8 25 -18 74 -17 80 9 33 30 -57 55 -63 56
-15 0 17 4 41 8 52 6 16 10 10 15 -28 5 -31 12 -47 22 -47 17 0 17 -2 1 75
-10 48 -17 61 -34 63 -12 2 -23 -4 -27 -13z"/>
<path d="M1025 2243 c-3 -27 -9 -58 -12 -70 -4 -17 -1 -23 11 -23 9 0 16 8 16
18 0 9 9 23 19 29 17 11 21 8 35 -27 9 -22 23 -40 31 -40 19 0 19 3 -5 50 -11
22 -20 41 -20 44 0 2 15 13 32 24 27 17 30 22 16 27 -11 4 -30 -3 -51 -19 -43
-33 -48 -33 -40 4 4 23 2 30 -10 30 -10 0 -17 -15 -22 -47z"/>
<path d="M1202 2181 c-17 -32 -32 -61 -32 -65 0 -17 22 -2 45 31 l25 38 0 -51
c0 -73 21 -88 53 -37 42 67 49 85 39 95 -6 6 -19 -7 -35 -34 l-26 -43 -1 56
c0 51 -9 69 -34 69 -1 0 -16 -26 -34 -59z"/>
<path d="M650 2210 c-16 -16 -18 -24 -10 -40 9 -16 21 -20 61 -20 43 0 50 -3
47 -17 -3 -13 -13 -18 -40 -18 -47 0 -58 -12 -23 -25 19 -7 34 -7 53 2 64 32
53 82 -19 84 -61 1 -63 2 -49 19 7 9 22 14 34 13 11 -2 23 2 26 7 3 6 -9 11
-27 13 -22 2 -38 -3 -53 -18z"/>
<path d="M886 1812 c-11 -15 -31 -42 -44 -59 -13 -18 -22 -33 -19 -33 7 0 90
111 85 115 -1 2 -12 -9 -22 -23z"/>
<path d="M908 1768 c-37 -46 -78 -111 -78 -123 0 -4 15 15 33 42 18 27 46 66
61 86 39 51 26 47 -16 -5z"/>
<path d="M953 1737 c-39 -42 -96 -127 -90 -134 3 -3 12 8 21 24 8 16 36 53 62
82 50 56 57 82 7 28z"/>
<path d="M998 1702 c-51 -57 -96 -125 -103 -158 -5 -20 1 -13 18 21 14 28 48
78 76 113 57 69 62 82 9 24z"/>
<path d="M810 1708 c0 -3 -11 -31 -25 -62 -14 -31 -22 -56 -20 -56 8 0 56 113
50 118 -3 3 -5 3 -5 0z"/>
<path d="M1025 1658 c-46 -54 -82 -116 -90 -154 -4 -23 -2 -22 9 8 17 43 67
120 104 161 14 15 23 27 20 27 -4 0 -23 -19 -43 -42z"/>
<path d="M816 1604 c-4 -14 -5 -28 -3 -31 3 -2 8 8 11 23 4 14 5 28 3 31 -3 2
-8 -8 -11 -23z"/>
<path d="M740 1556 c0 -9 171 -128 176 -123 4 4 -161 127 -171 127 -3 0 -5 -2
-5 -4z"/>
<path d="M672 1497 c-17 -13 -41 -37 -53 -53 l-21 -29 25 27 c14 16 43 39 63
53 20 14 33 25 27 25 -5 0 -23 -11 -41 -23z"/>
<path d="M710 1463 c-39 -31 -59 -53 -60 -68 0 -5 7 1 16 13 9 13 34 37 57 53
22 16 36 29 31 29 -5 0 -25 -12 -44 -27z"/>
<path d="M765 1448 c-30 -16 -66 -50 -77 -73 -5 -11 5 -3 24 17 18 20 47 43
63 52 17 8 26 15 20 15 -5 0 -19 -5 -30 -11z"/>
<path d="M798 1412 c-21 -15 -45 -38 -55 -52 -13 -20 -10 -19 18 7 19 18 45
42 59 52 37 30 21 25 -22 -7z"/>
<path d="M845 1390 c-31 -21 -64 -59 -65 -75 0 -5 9 3 19 18 10 16 33 37 50
48 17 10 31 21 31 24 0 7 0 7 -35 -15z"/>
<path d="M678 1233 c23 -2 61 -2 85 0 23 2 4 4 -43 4 -47 0 -66 -2 -42 -4z"/>
<path d="M863 1223 c26 -2 67 -2 90 0 23 2 2 3 -48 3 -49 0 -68 -1 -42 -3z"/>
<path d="M1043 1213 c26 -2 67 -2 90 0 23 2 2 3 -48 3 -49 0 -68 -1 -42 -3z"/>
<path d="M1233 1203 c26 -2 67 -2 90 0 23 2 2 3 -48 3 -49 0 -68 -1 -42 -3z"/>
<path d="M432 618 c-26 -16 -30 -23 -21 -34 16 -19 32 -18 60 5 21 18 22 21 9
35 -13 14 -18 13 -48 -6z"/>
<path d="M1421 541 c-7 -5 -11 -14 -7 -19 9 -15 36 -4 36 14 0 16 -9 18 -29 5z"/>
</g>
</svg>
