<svg width="20" height="20" viewBox="0 0 20 20" fill="none" xmlns="http://www.w3.org/2000/svg">
<g clip-path="url(#clip0_7223_34)">
<path d="M7.5 19.2C6.6 19.2 5.8 18.5 5.8 17.5C5.8 16.5 6.5 15.8 7.5 15.8C8.5 15.8 9.2 16.5 9.2 17.5C9.2 18.5 8.4 19.2 7.5 19.2ZM18.3 17.5C18.3 16.6 17.6 15.8 16.6 15.8C15.6 15.8 15 16.6 15 17.5C15 18.4 15.7 19.2 16.7 19.2C17.7 19.2 18.3 18.4 18.3 17.5ZM8.1 14.2H16.2C17.4 14.2 18.5 13.4 18.7 12.2L20 5.2C20 5 20 4.7 19.8 4.5C19.6 4.3 19.4 4.2 19.2 4.2H5.7L5 0.7C4.9 0.3 4.6 0 4.2 0H0.8C0.4 0 0 0.4 0 0.8C0 1.2 0.4 1.6 0.8 1.6H3.4L4.1 5.1C4.1 5.1 4.1 5.1 4.1 5.2L5.5 12.2C5.8 13.3 6.8 14.2 8.1 14.2C8.1 14.2 8 14.2 8.1 14.2ZM18.2 5.8L17.1 11.8C17 12.2 16.7 12.5 16.3 12.5H8.1C7.7 12.5 7.3 12.2 7.3 11.8L6 5.8H18.2Z" fill="white"/>
</g>
<defs>
<clipPath id="clip0_7223_34">
<rect width="20" height="20" fill="white"/>
</clipPath>
</defs>
</svg>
